<svg width="227" height="51" xmlns="http://www.w3.org/2000/svg" xmlns:xlink="http://www.w3.org/1999/xlink">
    <defs>
        <linearGradient x1="-.002%" y1="50.002%" x2="99.997%" y2="50.002%" id="b">
            <stop stop-color="#B01C0E" offset="0%"/>
            <stop stop-color="#DC2B1C" offset="100%"/>
        </linearGradient>
        <path d="M.412.364h6.866l9.98 17.3c-.287.061-.575.121-.862.177-1.088.213-2.311.536-3.39.805-.484.12-1.149.296-1.764.47L.412.365zM21.207 24.51l8.016 13.894 6.716-11.58-3.186-5.554c.363-.08.699-.168 1.064-.25 1.667-.38 3.316-.776 4.997-1.112l3.89 6.798-13.518 23.48L15.513 26.51c.391-.155.784-.307 1.177-.457l1.02-.38c.082-.033.158-.06.242-.089l3.255-1.075zm8.328-8.85L20.76.36l37.208.007-7.79 13.458-.074.008c-.183.025-.458.031-.652.047l-2.626.17c-.06.01-.11.003-.17.006l-.816.057c-.077.01-.238.022-.32.029-.225.018-.429.01-.656.043l-1.283.098a8.216 8.216 0 0 0-.65.05c-.22.023-.447.023-.649.05l-3.176.27-3.157-5.46 6.788-.034 1.628 2.806L47.82 6.28H31.014l4.955 8.659-.113.01-1.267.13c-.425.06-.829.085-1.265.133-.413.046-.833.094-1.259.14-.197.022-.412.045-.624.074-.215.03-.426.048-.625.075-.426.057-.854.108-1.28.159zm18.114 2.533L44.4 23.81 41.8 19.317l3.47-.686c.79-.153 1.583-.298 2.378-.438z" id="a"/>
    </defs>
    <g fill="none" fill-rule="evenodd">
        <path d="M12.44 42.43C-.736 23.883 66.377 15.316 75.908 14.16c-14.367 1.45-91.084 1.338-63.468 28.27" fill="#313130"/>
        <path d="m.21.266 12.714 21.992.742-.372 1.2-.546c.659-.282 1.317-.533 1.986-.795l1.594-.533L7.141.298.21.266zm17.43 30.15 11.48 19.857 4.458-7.807-3.512-5.987-1.098 1.882-6.143-10.713-.304.14-1.177.554-.454.227c-.347.173-.688.342-1.02.535-.04.023-.072.035-.117.06l-1.756 1.021-.357.231zm20.475 4.104 4.46-7.812-2.729-4.718-.49.123c-1.09.273-2.182.568-3.261.88l-2.15.629 1.801 3.122-1.066 1.828 3.435 5.948zm-1.687-18.44L27.293.29 20.51.34l9.66 16.741.293-.053c.198-.033.402-.067.594-.105.39-.078.805-.142 1.192-.207.795-.132 1.603-.269 2.394-.384l1.785-.252z" fill="#313130"/>
        <g transform="translate(9.985)">
            <mask id="c" fill="#fff">
                <use xlink:href="#a"/>
            </mask>
            <path d="M.412.364h6.866l9.98 17.3c-.287.061-.575.121-.862.177-1.088.213-2.311.536-3.39.805-.484.12-1.149.296-1.764.47L.412.365zM21.207 24.51l8.016 13.894 6.716-11.58-3.186-5.554c.363-.08.699-.168 1.064-.25 1.667-.38 3.316-.776 4.997-1.112l3.89 6.798-13.518 23.48L15.513 26.51c.391-.155.784-.307 1.177-.457l1.02-.38c.082-.033.158-.06.242-.089l3.255-1.075zm8.328-8.85L20.76.36l37.208.007-7.79 13.458-.074.008c-.183.025-.458.031-.652.047l-2.626.17c-.06.01-.11.003-.17.006l-.816.057c-.077.01-.238.022-.32.029-.225.018-.429.01-.656.043l-1.283.098a8.216 8.216 0 0 0-.65.05c-.22.023-.447.023-.649.05l-3.176.27-3.157-5.46 6.788-.034 1.628 2.806L47.82 6.28H31.014l4.955 8.659-.113.01-1.267.13c-.425.06-.829.085-1.265.133-.413.046-.833.094-1.259.14-.197.022-.412.045-.624.074-.215.03-.426.048-.625.075-.426.057-.854.108-1.28.159zm18.114 2.533L44.4 23.81 41.8 19.317l3.47-.686c.79-.153 1.583-.298 2.378-.438z" fill="url(#b)" mask="url(#c)"/>
        </g>
        <path d="M101.041 11.475h-4.378v.659c1.5.154 1.598.475 1.313 1.595-.252 1.055-.998 4.035-1.76 6.377h-.04c-1.06-2.729-2.122-5.643-3.196-8.517h-.9a249.1 249.1 0 0 1-2.745 8.464h-.039a250.39 250.39 0 0 1-1.922-6.49c-.277-.954-.277-1.262 1.16-1.429v-.66H83v.66c1.138.167 1.437.475 1.901 1.93 1.074 3.313 1.987 6.455 2.997 9.857h.998c.912-2.747 1.876-5.555 2.86-8.438h.038c1.075 2.883 2.06 5.603 3.095 8.438h.977c1.586-5.27 2.694-8.544 3.107-9.713.512-1.586.832-1.867 2.068-2.074v-.66zm7.077-.286c-4.344 0-6.744 3.125-6.744 6.408 0 3.617 2.699 6.403 6.506 6.403 3.615 0 6.616-2.474 6.616-6.557 0-3.705-2.899-6.254-6.365-6.254h-.013zm-.354.809c2.256 0 3.893 2.215 3.893 5.972 0 3.477-1.573 5.213-3.415 5.213-2.49 0-4.029-2.703-4.029-5.92 0-3.331 1.612-5.265 3.539-5.265h.012zm21.03-.523h-4.548v.659c1.373.075 1.76.413 1.85 1.261.039.54.15 1.407.15 3.081v3.3h-.052l-7.336-8.301h-3.462v.659c.776.075 1.198.207 1.548.655.362.452.4.786.4 2.013v3.933c0 1.661-.11 2.448-.187 3.094-.077.822-.524 1.12-1.548 1.222v.659h4.575v-.66c-1.39-.074-1.714-.434-1.804-1.3-.06-.567-.149-1.354-.149-3.015l.013-4.267h.038l7.976 9.453h.874v-7.45c0-1.674.111-2.535.188-3.115.09-.914.486-1.16 1.475-1.222v-.66zm1.144.004v.655c1.326.128 1.513.242 1.513 1.855v7.19c0 1.626-.187 1.727-1.675 1.867v.664h4.885c2.345 0 4.332-.523 5.73-1.565 1.462-1.107 2.387-2.755 2.387-5.05 0-1.806-.75-3.133-1.688-4.02-1.223-1.134-3.056-1.596-5.392-1.596h-5.76zm3.986 2.136c0-.54.039-.888.2-1.068.124-.127.525-.285 1.25-.285 1.36 0 2.382.413 3.184 1.2.874.847 1.432 2.289 1.432 4.025 0 3.243-1.748 5.38-4.395 5.38-1.407 0-1.67-.462-1.67-1.825v-7.427zm19.551 6.777c-.34.852-.69 1.472-1.053 1.88-.43.493-1.134.594-2.063.594-.687 0-1.39-.022-1.714-.18-.388-.167-.452-.655-.452-1.56V17.93h1.28c1.576 0 1.84.079 2.075 1.432h.665V15.54h-.665c-.234 1.31-.499 1.424-2.076 1.424h-1.279v-3.995c0-.615.051-.655.776-.655h.95c.994 0 1.493.14 1.825.475.333.334.606.989.768 1.644l.673-.089c-.072-1.221-.162-2.53-.175-2.865h-8.837v.655c1.347.114 1.522.207 1.522 1.881v7.163c0 1.627-.175 1.728-1.799 1.868v.664h9.58c.148-.563.536-2.298.66-3.164l-.66-.154zm13.186 2.843c-.439-.153-.724-.347-1.112-.769-.363-.395-.776-1.015-1.437-2.052a34.014 34.014 0 0 1-1.518-2.65c1.232-.488 2.32-1.393 2.32-3.072 0-1.165-.512-2.004-1.237-2.519-.759-.518-1.71-.698-3.397-.698h-5.176v.659c1.36.114 1.548.334 1.548 1.846v7.19c0 1.56-.234 1.727-1.62 1.88v.66h5.623v-.66c-1.411-.153-1.599-.32-1.599-1.867v-2.72h.362c.597 0 .947.228 1.258.786.55 1.007 1.04 2.009 1.526 2.787.75 1.173 1.475 1.714 3.845 1.832.214 0 .414.013.5.013l.114-.646zm-7.605-5.51v-4.61c0-.375.034-.581.162-.695.137-.12.388-.207.874-.207 1.062 0 2.213.734 2.213 2.751 0 .954-.26 1.688-.9 2.26-.413.373-1.074.5-1.888.5h-.46zm20.91-3.319c-.14-1.2-.276-2.04-.336-2.72-.302-.106-1.39-.501-2.617-.501-2.588 0-4.246 1.6-4.246 3.696 0 1.806 1.287 2.821 3.227 3.801 1.39.721 2.22 1.415 2.22 2.523 0 1.222-.72 2.008-1.862 2.008-1.765 0-2.912-2.175-3.261-3.375l-.648.207c.128 1.147.375 2.795.55 3.243.226.119.597.26 1.12.426.55.18 1.212.282 1.88.282 2.7 0 4.524-1.697 4.524-3.859 0-1.868-1.326-2.923-3.295-3.876-1.663-.827-2.332-1.416-2.332-2.448 0-1.068.741-1.864 1.837-1.864 1.488 0 2.238 1.415 2.6 2.598l.64-.14zm12.697.317c-.085-1.196-.2-2.923-.213-3.723h-.435c-.337.36-.588.48-1.1.48h-7.652c-.537 0-.784-.04-1.07-.48h-.46c-.034.967-.137 2.369-.209 3.775h.682c.235-.953.473-1.608.793-1.933.264-.295.563-.528 2.255-.528h.597v8.873c0 1.622-.196 1.723-1.778 1.864v.659h6.118v-.66c-1.659-.14-1.859-.241-1.859-1.863v-8.873h.823c1.198 0 1.65.119 1.999.453.324.36.622 1.015.836 1.995l.673-.04zm13.02-3.248h-4.33v.659c1.372.193 1.385.448 1.073 1.222-.439 1.08-1.402 2.843-1.948 3.946-.733-1.402-1.517-2.79-2.165-4.078-.341-.655-.341-.923.895-1.09v-.66h-5.342v.66c1.036.167 1.36.373 2.072 1.644 1.1 1.907 1.8 3.19 2.31 4.21.188.373.26.554.26 1.028v2.066c0 1.727-.187 1.841-1.785 1.969v.659h6.066v-.66c-1.675-.127-1.8-.241-1.8-1.968v-2.426c0-.54.06-.787.325-1.288.912-1.749 1.424-2.549 2.097-3.639.686-1.068 1.074-1.467 2.272-1.595v-.66zm9.874 8.79c-.375.98-.712 1.573-1.061 1.973-.44.5-1.126.628-1.923.628-.588 0-1.074-.013-1.424-.14-.387-.167-.452-.488-.452-1.38v-7.357c0-1.613.175-1.727 1.612-1.855v-.66h-5.734v.66c1.45.128 1.65.242 1.65 1.855v7.176c0 1.644-.2 1.745-1.863 1.886v.659h9.157c.136-.523.537-2.413.686-3.24l-.648-.206zm10.782.127c-.34.852-.69 1.472-1.053 1.88-.43.493-1.134.594-2.063.594-.686 0-1.39-.022-1.714-.18-.388-.167-.452-.655-.452-1.56V17.93h1.28c1.577 0 1.84.079 2.075 1.432h.665V15.54h-.665c-.234 1.31-.498 1.424-2.076 1.424h-1.279v-3.995c0-.615.052-.655.776-.655h.95c.994 0 1.493.14 1.825.475.333.334.606.989.768 1.644l.673-.089c-.072-1.221-.162-2.53-.174-2.865h-8.838v.655c1.347.114 1.522.207 1.522 1.881v7.163c0 1.627-.175 1.728-1.799 1.868v.664h9.58c.148-.563.536-2.298.66-3.164l-.66-.154z" fill="#313130"/>
        <path d="M136.13 23.134c.007-.055.014-.1.013-.145-.006-.224-.134-.338-.294-.333-.231.006-.536.257-.692.765 0 .01.085.15.236.147a.353.353 0 0 0 .203-.078c.008-.009.017-.01.026-.01.01 0 .018.009.019.036.003.117-.12.48-.161.634-1.784.876-2.966 4.596-3.792 7.973-1.079.965-2.004 1.997-2.662 3.014-.735 1.135-1.047 2.124-1.025 2.942.053 1.959 1.996 2.984 4.39 2.918 2.51-.07 5.522-1.34 7.357-3.98a6.276 6.276 0 0 0 1.128-3.727c-.055-2.031-1.183-3.897-3.486-4.41 1.086-.686 2.119-1.029 3.07-1.055.437-.012.866.048 1.28.162h.017a.168.168 0 0 0 .165-.166c-.002-.063-.048-.125-.138-.158a5.002 5.002 0 0 0-.91-.047c-1.273.035-2.722.461-4.174 1.14-.214-.03-.41-.043-.58-.065-.197-.021-.358-.035-.456-.06.035-.036.096-.083.174-.148 1.01-.531 1.755-1.982 1.725-3.087-.022-.781-.44-1.39-1.427-1.363a3.23 3.23 0 0 0-.284.026c.171-.58.278-.916.277-.925zm-.45 1.487c.159-.04.292-.062.417-.066.605-.016.865.39.88.956.024.872-.539 2.11-1.333 2.708-.201.15-.305.269-.347.36a.356.356 0 0 0-.023.127c.003.117.085.186.238.236.126.041.322.054.572.083l.063.007c-.782.4-1.553.87-2.297 1.385.74-2.277 1.404-4.4 1.83-5.796zm-2.069 6.496c.988-.711 2.204-1.5 3.25-1.997 2.46.382 3.723 2.272 3.78 4.338a5.715 5.715 0 0 1-1.03 3.4c-1.716 2.458-4.842 3.758-7.353 3.828-2.073.057-3.725-.733-3.77-2.414-.02-.746.275-1.671.984-2.77.573-.879 1.112-1.685 2.016-2.537l-.016.081c-.231.987-.33 1.619-.418 2.305-.06.442-.085.802-.078 1.063.004.162.025.278.053.35.048.088.111.14.2.138a.134.134 0 0 0 .1.033c.507-.014 1.454-2.513 2.282-5.818zm-2.303 5.423a.813.813 0 0 1-.012-.153c-.006-.215.02-.55.08-.991.088-.677.187-1.3.41-2.278.048-.18.088-.362.128-.543.452-.399.78-.768 1.295-1.16-.721 2.952-1.437 5.12-1.856 5.132-.018 0-.026.001-.045-.007zm2.132-5.832c-.455.327-.9.672-1.317 1.034.764-3.006 2.037-6.009 3.16-6.948a406.842 406.842 0 0 1-1.843 5.914zm11.249 1.613c.395-.55.555-.887.732-.92.018 0 .027.009.028.027.002.08-.204.383-.76.893zm1.291-1.007c-.022-.17-.115-.284-.24-.335a.398.398 0 0 0-.18-.031.708.708 0 0 0-.353.118 1.894 1.894 0 0 0-.487.436c-.284.359-.52.842-.507 1.345.008.26.077.528.253.775.204.3.528.408.91.398 1.46-.04 3.807-1.85 3.825-1.86.043-.037.069-.082.068-.127a.224.224 0 0 0-.22-.21.171.171 0 0 0-.106.039c-.008.01-2.414 1.946-3.643 1.98-.249.007-.447-.068-.567-.245-.112-.159-.154-.41-.16-.625-.002-.063.006-.126.004-.18.247-.106 1.435-.624 1.415-1.38-.001-.035-.011-.062-.012-.098zm8.951-1.011c0-.018.008-.037.008-.054-.004-.135-.184-.193-.38-.188-.222.006-.469.103-.491.275-.117.264-.576 1.75-.87 3.09a3.163 3.163 0 0 0-.078.703c.012.45.218.48.53.48.922-.466 2.397-4.23 3.02-4.246l.035-.001c.028.026.038.07.04.142.017.647-1.023 2.996-1.023 3.005a.618.618 0 0 0-.022.172c.007.269.24.343.481.337.054-.002.116-.003.169-.014.381-.055 1.042-1.323 1.656-1.673.017-.01.026-.019.044-.02.267-.007.259 1.333 1.14 1.309.053-.001.106-.012.168-.023.506-.094 1.803-.886 2.684-1.89a.132.132 0 0 0 .016-.064c-.003-.098-.148-.211-.282-.208a.197.197 0 0 0-.175.104c-.643.917-1.812 1.83-2.255 1.915a.686.686 0 0 1-.133.013c-.766.02-.402-1.338-1.086-1.58l-.044.001c-.552.015-1.427 1.254-1.534 1.256l-.009-.008c-.002-.072.227-.51.37-.829.244-.834.454-1.325.444-1.676a.546.546 0 0 0-.226-.443.773.773 0 0 0-.331-.072c-.864.024-1.535 1.886-2.892 3.731-.017.019-.035.019-.044.02-.027 0-.036-.027-.038-.072-.013-.503 1.108-3.492 1.108-3.492zm9.743 1.26.03.08a.237.237 0 0 0 .107.023c.098-.003.203-.06.28-.178l-.001-.036a.853.853 0 0 0-.043-.269l.33-.333v.01c.002.071-.105.389-.15.732-.055.253-.076.46-.071.64.018.674.425.906.995.89 1.388-.038 3.736-1.515 3.838-1.671a.248.248 0 0 0 .058-.163c-.003-.1-.058-.17-.138-.167-.054.001-.115.039-.165.148-.301.404-2.37 1.666-3.5 1.698-.435.012-.734-.151-.747-.618-.004-.18.034-.406.124-.678.141-.39.204-.698.199-.914-.006-.198-.071-.313-.188-.327a.166.166 0 0 0-.071-.016c-.17.004-.475.238-.736.47-.137-.132-.344-.216-.62-.208a1.642 1.642 0 0 0-.479.085c-.68.226-1.213.915-1.456 1.497a1.633 1.633 0 0 0-.146.508.682.682 0 0 0-.005.135.498.498 0 0 0 .106.32c.064.07.137.122.235.138.018 0 .036.008.045.008.383-.011 1.164-.788 1.849-1.481.147-.148.199-.195.32-.324zm-.344-.225c-.54.77-1.063 1.216-1.232 1.22-.036.002-.054-.016-.055-.043-.005-.206.716-1.207 1.143-1.218a.208.208 0 0 1 .144.04zm8.293.022.36.125s.015-.081.012-.198c-.004-.143-.036-.331-.155-.472.337-.378.624-.647.748-.65h.027c.009-.001.019.026.02.07.002.09-.02.27-.065.587-.068.442-.17.976-.305 1.564-.079.353-.206.581-.303.961-.66.972-1.51 2.776-1.936 3.822-.309.773-.54 1.48-.666 2.041a2.924 2.924 0 0 0-.096.74c.007.279.086.538.328.612.018.008.045.008.063.007.516-.014 1.283-2.274 1.382-2.583.388-1.126.986-3.04 1.308-4.308.527-1.264 2.188-2.407 4.136-2.533.078-.083.138-.166.136-.228-.001-.054-.038-.098-.146-.131a.455.455 0 0 0-.116-.006c-.748.02-3.065.957-3.811 2.02.016-.072.113-.416.13-.48.135-.597.197-.94.256-1.391.03-.199.043-.37.04-.505-.01-.36-.122-.545-.302-.603-.036-.008-.063-.016-.098-.016-.285.008-.659.36-1.083.822-.062-.016-.134-.014-.214-.012-.08.002-.169.005-.275.025-.567.115-1.451 1.02-1.844 1.652-.093.164-.17.31-.193.428a.508.508 0 0 0-.022.162c.003.117.059.215.185.274a.407.407 0 0 0 .188.04.663.663 0 0 0 .213-.042c.424-.147 1.063-.893 1.675-1.611l.38-.433a.377.377 0 0 1 .05.178c.001.045-.007.072-.007.072zm-.418-.294c-.316.486-.808 1.066-1.52 1.454.268-.34 1.135-1.218 1.52-1.454zm-.37 6.719c-.429 1.252-.954 2.256-1.119 2.414v-.027c-.005-.144.041-.415.13-.777.127-.543.358-1.251.658-2.006.267-.654.777-1.892 1.133-2.549-.235.852-.546 2.2-.802 2.945zm7.469-7.724v-.018a.314.314 0 0 0-.33-.315c-.133.004-.265.088-.304.27l-.77 3.51.002.036c.003.116.111.167.236.164.142-.004.31-.072.36-.19.013-.189 1.27-2.076 1.725-2.089.053-.001.099.034.128.114.434.905 1.012 1.204 1.617 1.187.97-.027 2.017-.865 2.713-1.45.053-.03.079-.075.077-.12-.002-.08-.085-.169-.173-.166a.14.14 0 0 0-.115.057c-.933.727-1.753 1.353-2.456 1.372-.544.015-1.025-.323-1.441-1.22-.123-.248-.277-.351-.455-.346-.392.01-.883.59-1.364 1.26l.55-2.056zm6.595 1.121c.394-.55.555-.887.732-.92.018 0 .027.01.027.027.003.081-.203.384-.76.893zm1.29-1.006a.396.396 0 0 0-.42-.366.71.71 0 0 0-.352.117 1.896 1.896 0 0 0-.487.436c-.284.359-.52.842-.507 1.345.007.26.077.529.253.776.204.3.527.408.91.397 1.46-.04 3.807-1.85 3.825-1.86.043-.036.069-.082.067-.127a.224.224 0 0 0-.22-.21.171.171 0 0 0-.105.04c-.009.008-2.415 1.945-3.643 1.98-.25.006-.447-.07-.568-.246-.11-.158-.153-.41-.16-.625-.001-.063.006-.126.005-.18.246-.106 1.435-.624 1.415-1.379-.002-.036-.011-.062-.012-.098zm6.385-4.358c.025-.082 1.52-3.387 1.654-3.391 0 0 .01.009.01.018 0 .036-.024.135-.073.298-.205.635-1.16 2.514-1.591 3.075zm-6.722 1.435c-.006-.206-.212-.254-.345-.25h-.054c-.115.004-.31.054-.307.171 0 .018.01.036.02.053.057.134.788.158 1.802.13 1.3-.035 3.06-.147 4.502-.196-1.148 2.99-2.155 6.57-2.098 8.709.026.943.258 1.611.78 1.822a.11.11 0 0 0 .054.007c.098-.002.175-.113.172-.212-.002-.071-.048-.142-.155-.148-.5-.031-.718-.52-.738-1.256-.068-2.508 2.065-7.97 2.758-9.006 2.06-.228 6.221-.523 6.221-.523a.239.239 0 0 0-.023.109c.003.126.103.23.228.227a.237.237 0 0 0 .106-.03s.732-.263.724-.586a.262.262 0 0 0-.058-.142c-.018-.009-.062-.008-.125-.006-.89.025-6.164.647-6.946.723.617-.908 2.295-3.4 2.268-4.424-.006-.216-.082-.367-.252-.425h-.018c-.56.016-1.715 2.143-2.798 4.907-1.98.216-3.5.321-4.542.35-.498.014-.9.016-1.176-.004zm9.456 4.127s-.197.276-.192.482c.001.045.011.09.039.125a.17.17 0 0 0 .145.077c.169-.005.395-.2.443-.39a.678.678 0 0 0 .015-.126c-.004-.153-.08-.295-.222-.29-.062 0-.141.04-.228.122zm3.925-.108s-.198.275-.192.482c.001.045.011.09.039.125a.17.17 0 0 0 .145.077c.169-.005.395-.2.443-.39a.707.707 0 0 0 .015-.126c-.004-.153-.08-.295-.222-.291-.062.002-.141.04-.228.123zm3.925-.109s-.197.276-.192.482c.001.045.011.09.039.125a.17.17 0 0 0 .145.077c.169-.005.395-.2.443-.39.008-.045.016-.09.015-.126-.004-.153-.08-.295-.222-.29-.062.001-.141.04-.228.122zm7.81-8.29a.22.22 0 0 0 .032-.118c-.005-.18-.266-.29-.515-.283-.178.005-.337.063-.404.21 0 .017-1.642 4.505-2.286 7.023l-.009.018c.004.117.256.227.443.222.098-.003.177-.032.21-.105l-.013-.17c-.068-2.526 2.437-6.687 2.541-6.797zm-2.712 8.087v-.018c-.003-.1-.267-.307-.498-.301-.134.003-.256.088-.295.305l-.088.353c-.009.027-.017.045-.016.072.005.207.312.333.56.326.179-.005.328-.071.324-.225v-.017l.013-.495z" fill="#DC2B1C"/>
        <path d="M136.13 23.134c.007-.055.014-.1.013-.145-.006-.224-.134-.338-.294-.333-.231.006-.536.257-.692.765 0 .01.085.15.236.147a.353.353 0 0 0 .203-.078c.008-.009.017-.01.026-.01.01 0 .018.009.019.036.003.117-.12.48-.161.634-1.784.876-2.966 4.596-3.792 7.973-1.079.965-2.004 1.997-2.662 3.014-.735 1.135-1.047 2.124-1.025 2.942.053 1.959 1.996 2.984 4.39 2.918 2.51-.07 5.522-1.34 7.357-3.98a6.276 6.276 0 0 0 1.128-3.727c-.055-2.031-1.183-3.897-3.486-4.41 1.086-.686 2.119-1.029 3.07-1.055.437-.012.866.048 1.28.162h.017a.168.168 0 0 0 .165-.166c-.002-.063-.048-.125-.138-.158a5.002 5.002 0 0 0-.91-.047c-1.273.035-2.722.461-4.174 1.14-.214-.03-.41-.043-.58-.065-.197-.021-.358-.035-.456-.06.035-.036.096-.083.174-.148 1.01-.531 1.755-1.982 1.725-3.087-.022-.781-.44-1.39-1.427-1.363a3.23 3.23 0 0 0-.284.026c.171-.58.278-.916.277-.925zm-.45 1.487c.159-.04.292-.062.417-.066.605-.016.865.39.88.956.024.872-.539 2.11-1.333 2.708-.201.15-.305.269-.347.36a.356.356 0 0 0-.023.127c.003.117.085.186.238.236.126.041.322.054.572.083l.063.007c-.782.4-1.553.87-2.297 1.385.74-2.277 1.404-4.4 1.83-5.796zm-2.069 6.496c.988-.711 2.204-1.5 3.25-1.997 2.46.382 3.723 2.272 3.78 4.338a5.715 5.715 0 0 1-1.03 3.4c-1.716 2.458-4.842 3.758-7.353 3.828-2.073.057-3.725-.733-3.77-2.414-.02-.746.275-1.671.984-2.77.573-.879 1.112-1.685 2.016-2.537l-.016.081c-.231.987-.33 1.619-.418 2.305-.06.442-.085.802-.078 1.063.004.162.025.278.053.35.048.088.111.14.2.138a.134.134 0 0 0 .1.033c.507-.014 1.454-2.513 2.282-5.818zm-2.303 5.423a.813.813 0 0 1-.012-.153c-.006-.215.02-.55.08-.991.088-.677.187-1.3.41-2.278.048-.18.088-.362.128-.543.452-.399.78-.768 1.295-1.16-.721 2.952-1.437 5.12-1.856 5.132-.018 0-.026.001-.045-.007zm2.132-5.832c-.455.327-.9.672-1.317 1.034.764-3.006 2.037-6.009 3.16-6.948a406.842 406.842 0 0 1-1.843 5.914zm11.249 1.613c.395-.55.555-.887.732-.92.018 0 .027.009.028.027.002.08-.204.383-.76.893zm1.291-1.007c-.022-.17-.115-.284-.24-.335a.398.398 0 0 0-.18-.031.708.708 0 0 0-.353.118 1.894 1.894 0 0 0-.487.436c-.284.359-.52.842-.507 1.345.008.26.077.528.253.775.204.3.528.408.91.398 1.46-.04 3.807-1.85 3.825-1.86.043-.037.069-.082.068-.127a.224.224 0 0 0-.22-.21.171.171 0 0 0-.106.039c-.008.01-2.414 1.946-3.643 1.98-.249.007-.447-.068-.567-.245-.112-.159-.154-.41-.16-.625-.002-.063.006-.126.004-.18.247-.106 1.435-.624 1.415-1.38-.001-.035-.011-.062-.012-.098zm8.951-1.011c0-.018.008-.037.008-.054-.004-.135-.184-.193-.38-.188-.222.006-.469.103-.491.275-.117.264-.576 1.75-.87 3.09a3.163 3.163 0 0 0-.078.703c.012.45.218.48.53.48.922-.466 2.397-4.23 3.02-4.246l.035-.001c.028.026.038.07.04.142.017.647-1.023 2.996-1.023 3.005a.618.618 0 0 0-.022.172c.007.269.24.343.481.337.054-.002.116-.003.169-.014.381-.055 1.042-1.323 1.656-1.673.017-.01.026-.019.044-.02.267-.007.259 1.333 1.14 1.309.053-.001.106-.012.168-.023.506-.094 1.803-.886 2.684-1.89a.132.132 0 0 0 .016-.064c-.003-.098-.148-.211-.282-.208a.197.197 0 0 0-.175.104c-.643.917-1.812 1.83-2.255 1.915a.686.686 0 0 1-.133.013c-.766.02-.402-1.338-1.086-1.58l-.044.001c-.552.015-1.427 1.254-1.534 1.256l-.009-.008c-.002-.072.227-.51.37-.829.244-.834.454-1.325.444-1.676a.546.546 0 0 0-.226-.443.773.773 0 0 0-.331-.072c-.864.024-1.535 1.886-2.892 3.731-.017.019-.035.019-.044.02-.027 0-.036-.027-.038-.072-.013-.503 1.108-3.492 1.108-3.492zm9.743 1.26.03.08a.237.237 0 0 0 .107.023c.098-.003.203-.06.28-.178l-.001-.036a.853.853 0 0 0-.043-.269l.33-.333v.01c.002.071-.105.389-.15.732-.055.253-.076.46-.071.64.018.674.425.906.995.89 1.388-.038 3.736-1.515 3.838-1.671a.248.248 0 0 0 .058-.163c-.003-.1-.058-.17-.138-.167-.054.001-.115.039-.165.148-.301.404-2.37 1.666-3.5 1.698-.435.012-.734-.151-.747-.618-.004-.18.034-.406.124-.678.141-.39.204-.698.199-.914-.006-.198-.071-.313-.188-.327a.166.166 0 0 0-.071-.016c-.17.004-.475.238-.736.47-.137-.132-.344-.216-.62-.208a1.642 1.642 0 0 0-.479.085c-.68.226-1.213.915-1.456 1.497a1.633 1.633 0 0 0-.146.508.682.682 0 0 0-.005.135.498.498 0 0 0 .106.32c.064.07.137.122.235.138.018 0 .036.008.045.008.383-.011 1.164-.788 1.849-1.481.147-.148.199-.195.32-.324zm-.344-.225c-.54.77-1.063 1.216-1.232 1.22-.036.002-.054-.016-.055-.043-.005-.206.716-1.207 1.143-1.218a.208.208 0 0 1 .144.04zm8.293.022.36.125s.015-.081.012-.198c-.004-.143-.036-.331-.155-.472.337-.378.624-.647.748-.65h.027c.009-.001.019.026.02.07.002.09-.02.27-.065.587-.068.442-.17.976-.305 1.564-.079.353-.206.581-.303.961-.66.972-1.51 2.776-1.936 3.822-.309.773-.54 1.48-.666 2.041a2.924 2.924 0 0 0-.096.74c.007.279.086.538.328.612.018.008.045.008.063.007.516-.014 1.283-2.274 1.382-2.583.388-1.126.986-3.04 1.308-4.308.527-1.264 2.188-2.407 4.136-2.533.078-.083.138-.166.136-.228-.001-.054-.038-.098-.146-.131a.455.455 0 0 0-.116-.006c-.748.02-3.065.957-3.811 2.02.016-.072.113-.416.13-.48.135-.597.197-.94.256-1.391.03-.199.043-.37.04-.505-.01-.36-.122-.545-.302-.603-.036-.008-.063-.016-.098-.016-.285.008-.659.36-1.083.822-.062-.016-.134-.014-.214-.012-.08.002-.169.005-.275.025-.567.115-1.451 1.02-1.844 1.652-.093.164-.17.31-.193.428a.508.508 0 0 0-.022.162c.003.117.059.215.185.274a.407.407 0 0 0 .188.04.663.663 0 0 0 .213-.042c.424-.147 1.063-.893 1.675-1.611l.38-.433a.377.377 0 0 1 .05.178c.001.045-.007.072-.007.072zm-.418-.294c-.316.486-.808 1.066-1.52 1.454.268-.34 1.135-1.218 1.52-1.454zm-.37 6.719c-.429 1.252-.954 2.256-1.119 2.414v-.027c-.005-.144.041-.415.13-.777.127-.543.358-1.251.658-2.006.267-.654.777-1.892 1.133-2.549-.235.852-.546 2.2-.802 2.945zm7.469-7.724v-.018a.314.314 0 0 0-.33-.315c-.133.004-.265.088-.304.27l-.77 3.51.002.036c.003.116.111.167.236.164.142-.004.31-.072.36-.19.013-.189 1.27-2.076 1.725-2.089.053-.001.099.034.128.114.434.905 1.012 1.204 1.617 1.187.97-.027 2.017-.865 2.713-1.45.053-.03.079-.075.077-.12-.002-.08-.085-.169-.173-.166a.14.14 0 0 0-.115.057c-.933.727-1.753 1.353-2.456 1.372-.544.015-1.025-.323-1.441-1.22-.123-.248-.277-.351-.455-.346-.392.01-.883.59-1.364 1.26l.55-2.056zm6.595 1.121c.394-.55.555-.887.732-.92.018 0 .027.01.027.027.003.081-.203.384-.76.893zm1.29-1.006a.396.396 0 0 0-.42-.366.71.71 0 0 0-.352.117 1.896 1.896 0 0 0-.487.436c-.284.359-.52.842-.507 1.345.007.26.077.529.253.776.204.3.527.408.91.397 1.46-.04 3.807-1.85 3.825-1.86.043-.036.069-.082.067-.127a.224.224 0 0 0-.22-.21.171.171 0 0 0-.105.04c-.009.008-2.415 1.945-3.643 1.98-.25.006-.447-.07-.568-.246-.11-.158-.153-.41-.16-.625-.001-.063.006-.126.005-.18.246-.106 1.435-.624 1.415-1.379-.002-.036-.011-.062-.012-.098zm6.385-4.358c.025-.082 1.52-3.387 1.654-3.391 0 0 .01.009.01.018 0 .036-.024.135-.073.298-.205.635-1.16 2.514-1.591 3.075zm-6.722 1.435c-.006-.206-.212-.254-.345-.25h-.054c-.115.004-.31.054-.307.171 0 .018.01.036.02.053.057.134.788.158 1.802.13 1.3-.035 3.06-.147 4.502-.196-1.148 2.99-2.155 6.57-2.098 8.709.026.943.258 1.611.78 1.822a.11.11 0 0 0 .054.007c.098-.002.175-.113.172-.212-.002-.071-.048-.142-.155-.148-.5-.031-.718-.52-.738-1.256-.068-2.508 2.065-7.97 2.758-9.006 2.06-.228 6.221-.523 6.221-.523a.239.239 0 0 0-.023.109c.003.126.103.23.228.227a.237.237 0 0 0 .106-.03s.732-.263.724-.586a.262.262 0 0 0-.058-.142c-.018-.009-.062-.008-.125-.006-.89.025-6.164.647-6.946.723.617-.908 2.295-3.4 2.268-4.424-.006-.216-.082-.367-.252-.425h-.018c-.56.016-1.715 2.143-2.798 4.907-1.98.216-3.5.321-4.542.35-.498.014-.9.016-1.176-.004zm9.456 4.127s-.197.276-.192.482c.001.045.011.09.039.125a.17.17 0 0 0 .145.077c.169-.005.395-.2.443-.39a.678.678 0 0 0 .015-.126c-.004-.153-.08-.295-.222-.29-.062 0-.141.04-.228.122zm3.925-.108s-.198.275-.192.482c.001.045.011.09.039.125a.17.17 0 0 0 .145.077c.169-.005.395-.2.443-.39a.707.707 0 0 0 .015-.126c-.004-.153-.08-.295-.222-.291-.062.002-.141.04-.228.123zm3.925-.109s-.197.276-.192.482c.001.045.011.09.039.125a.17.17 0 0 0 .145.077c.169-.005.395-.2.443-.39.008-.045.016-.09.015-.126-.004-.153-.08-.295-.222-.29-.062.001-.141.04-.228.122zm7.81-8.29a.22.22 0 0 0 .032-.118c-.005-.18-.266-.29-.515-.283-.178.005-.337.063-.404.21 0 .017-1.642 4.505-2.286 7.023l-.009.018c.004.117.256.227.443.222.098-.003.177-.032.21-.105l-.013-.17c-.068-2.526 2.437-6.687 2.541-6.797zm-2.712 8.087v-.018c-.003-.1-.267-.307-.498-.301-.134.003-.256.088-.295.305l-.088.353c-.009.027-.017.045-.016.072.005.207.312.333.56.326.179-.005.328-.071.324-.225v-.017l.013-.495z" stroke="#DD2A1B" stroke-width=".216"/>
    </g>
</svg>
