<svg width="100" height="103" xmlns="http://www.w3.org/2000/svg" xmlns:xlink="http://www.w3.org/1999/xlink">
    <defs>
        <linearGradient x1="-.002%" y1="50.002%" x2="99.997%" y2="50.002%" id="d">
            <stop stop-color="#B01C0E" offset="0%"/>
            <stop stop-color="#DC2B1C" offset="100%"/>
        </linearGradient>
        <ellipse id="b" cx="65.152" cy="77.273" rx="25.758" ry="19.697"/>
        <filter x="-13.6%" y="-12.7%" width="127.2%" height="135.5%" filterUnits="objectBoundingBox" id="a">
            <feOffset dy="2" in="SourceAlpha" result="shadowOffsetOuter1"/>
            <feGaussianBlur stdDeviation="2" in="shadowOffsetOuter1" result="shadowBlurOuter1"/>
            <feColorMatrix values="0 0 0 0 0 0 0 0 0 0 0 0 0 0 0 0 0 0 0.5 0" in="shadowBlurOuter1"/>
        </filter>
        <path d="M.127.115H2.25L5.333 5.6l-.266.056c-.336.067-.714.17-1.048.255-.15.038-.355.094-.545.149L.127.115zm6.427 7.653 2.476 4.404 2.076-3.67-.984-1.76c.112-.026.215-.054.328-.08.515-.12 1.025-.246 1.544-.352l1.202 2.154-4.177 7.442-4.225-7.503c.12-.05.242-.098.364-.145l.315-.12c.025-.011.049-.02.075-.029l1.006-.34zm2.573-2.805L6.415.114l11.498.002-2.407 4.266-.023.002c-.057.008-.141.01-.202.015l-.81.054c-.02.003-.035 0-.053.002l-.253.018-.099.01c-.07.005-.132.002-.202.013l-.397.031c-.065.002-.14.009-.2.016-.069.007-.139.007-.201.016l-.982.085-.975-1.73 2.097-.011.503.89 1.069-1.802H9.584l1.531 2.744-.035.003-.391.041c-.132.019-.256.027-.391.042l-.39.045a7.136 7.136 0 0 0-.192.023c-.066.01-.132.016-.193.024-.132.018-.264.034-.396.05zm5.598.803-1.005 1.78-.802-1.424 1.072-.217c.244-.049.49-.094.735-.139z" id="c"/>
    </defs>
    <g fill="none" fill-rule="evenodd">
        <use filter="url(#a)" xlink:href="#b" fill="#000"/>
        <path d="M50.167 8C34.062 8 21 21.063 21 37.167c0 21.875 29.167 54.166 29.167 54.166s29.166-32.291 29.166-54.166C79.333 21.062 66.271 8 50.167 8z" fill="#DC2B1C"/>
        <path d="M50 54c-8.28 0-15-6.72-15-15 0-8.28 6.72-15 15-15 8.28 0 15 6.72 15 15 0 8.28-6.72 15-15 15z" fill="#FFF"/>
        <path d="M0 0h100v100H0z"/>
        <path d="M43.885 46C39.709 40.096 60.979 37.368 64 37c-4.553.462-28.867.426-20.115 9" fill="#313130"/>
        <path d="m40 33 3.901 7.036.228-.119.369-.174c.202-.09.403-.17.609-.255l.489-.17-3.469-6.308L40 33zm5.349 9.647L48.87 49l1.368-2.498-1.077-1.916-.338.603-1.885-3.428-.093.045-.36.177-.14.073c-.107.055-.211.109-.313.17-.012.008-.022.012-.036.02l-.539.327-.11.074zm6.282 1.313L53 41.46l-.837-1.51-.15.04c-.335.087-.67.182-1.002.282l-.66.2.553 1-.327.585 1.054 1.903zm-.517-5.9-2.803-5.053-2.082.017 2.965 5.356.09-.016c.06-.011.123-.022.181-.034.12-.025.247-.046.366-.066.244-.043.492-.086.735-.123l.548-.081z" fill="#313130"/>
        <g transform="translate(43 33)">
            <mask id="e" fill="#fff">
                <use xlink:href="#c"/>
            </mask>
            <path d="M.127.115H2.25L5.333 5.6l-.266.056c-.336.067-.714.17-1.048.255-.15.038-.355.094-.545.149L.127.115zm6.427 7.653 2.476 4.404 2.076-3.67-.984-1.76c.112-.026.215-.054.328-.08.515-.12 1.025-.246 1.544-.352l1.202 2.154-4.177 7.442-4.225-7.503c.12-.05.242-.098.364-.145l.315-.12c.025-.011.049-.02.075-.029l1.006-.34zm2.573-2.805L6.415.114l11.498.002-2.407 4.266-.023.002c-.057.008-.141.01-.202.015l-.81.054c-.02.003-.035 0-.053.002l-.253.018-.099.01c-.07.005-.132.002-.202.013l-.397.031c-.065.002-.14.009-.2.016-.069.007-.139.007-.201.016l-.982.085-.975-1.73 2.097-.011.503.89 1.069-1.802H9.584l1.531 2.744-.035.003-.391.041c-.132.019-.256.027-.391.042l-.39.045a7.136 7.136 0 0 0-.192.023c-.066.01-.132.016-.193.024-.132.018-.264.034-.396.05zm5.598.803-1.005 1.78-.802-1.424 1.072-.217c.244-.049.49-.094.735-.139z" fill="url(#d)" mask="url(#e)"/>
        </g>
    </g>
</svg>
